<svg xmlns="http://www.w3.org/2000/svg" width="300" height="162" viewBox="0 0 300 162">
  <g fill="none" fill-rule="evenodd">
    <path fill="#621B40" d="M42.7899689,107.70559 L42.7899689,102.037267 L23.4064286,102.037267 L23.4064286,107.70559 L25.2958696,107.70559 C27.6045652,107.70559 28.2343789,108.475155 28.2343789,110.574224 L28.2343789,131.007764 C28.2343789,133.317391 27.885,135.067081 27.0446273,136.326708 C26.0654348,137.865839 24.3856211,138.635404 22.2865528,138.635404 C20.5368634,138.635404 18.6474224,137.795963 17.6682298,136.396584 C16.4086025,134.507143 16.3387267,132.547826 16.3387267,127.649068 L16.3387267,107.70559 L20.2573602,107.70559 L20.2573602,102.037267 L0.033447205,102.037267 L0.033447205,107.70559 L1.9228882,107.70559 C4.23251553,107.70559 4.86232919,108.545031 4.86232919,110.574224 L4.86232919,129.18913 C4.86232919,134.507143 5.98127329,139.05559 9.55052795,142.134783 C12.4200932,144.584161 16.9685404,145.913665 22.0070497,145.913665 C27.9548758,145.913665 32.6430745,143.88354 35.3020807,140.80528 C37.961087,137.726087 38.8713354,133.387267 38.8713354,128.768944 L38.8713354,107.70559 L42.7899689,107.70559 Z M80.598354,145.143168 L80.598354,140.315217 L79.2688509,140.315217 C77.658913,140.315217 76.8893478,140.035714 76.8893478,138.286025 L76.8893478,122.821118 C76.8893478,119.251863 75.9101553,116.592857 74.1604658,114.913043 C72.3409006,113.093478 69.6120186,112.184161 66.7424534,112.184161 C64.0135714,112.184161 60.7247516,113.023602 57.1554969,115.753416 L57.1554969,114.703416 C57.1554969,113.093478 56.3859317,112.604348 54.4964907,112.604348 C51.977236,112.604348 47.7790994,113.093478 41.2014596,113.093478 L42.1806522,117.992236 L46.3797205,117.992236 L46.3797205,140.315217 L42.7405901,140.315217 L42.7405901,145.143168 L60.585,145.143168 L60.585,140.315217 L59.535,140.315217 C57.9259938,140.315217 57.1554969,139.964907 57.1554969,138.286025 L57.1554969,121.631366 C58.7654348,120.231988 60.5151242,119.321739 62.474441,119.321739 C64.7132609,119.321739 66.1126398,120.511491 66.1126398,123.240373 L66.1126398,140.315217 L62.9645031,140.315217 L62.9645031,145.143168 L80.598354,145.143168 Z M100.37413,145.143168 L100.37413,140.315217 L99.0446273,140.315217 C97.4346894,140.315217 96.6651242,139.964907 96.6651242,138.286025 L96.6651242,114.703416 C96.6651242,113.093478 95.895559,112.604348 94.006118,112.604348 C91.4868634,112.604348 87.287795,113.093478 80.7101553,113.093478 L81.6902795,117.992236 L85.8884161,117.992236 L85.8884161,140.315217 L82.2492857,140.315217 L82.2492857,145.143168 L100.37413,145.143168 Z M136.250217,117.992236 L135.271025,113.093478 L120.785311,113.093478 L120.785311,117.992236 L124.07413,117.992236 L118.546491,134.367391 L113.577857,120.931677 C112.948043,119.251863 113.36823,117.992236 115.256739,117.992236 L116.65705,117.992236 L116.65705,113.093478 L98.4623292,113.093478 L98.4623292,117.992236 L102.031584,117.992236 L112.808292,145.143168 L121.554876,145.143168 L130.862329,120.511491 C131.70177,118.271739 132.75177,117.992236 134.430652,117.992236 L136.250217,117.992236 Z M164.590901,128.418634 C164.590901,119.391615 159.552391,112.184161 149.965435,112.184161 C139.959224,112.184161 133.800839,119.531366 133.800839,129.259006 C133.800839,139.335093 139.469161,146.053416 149.825683,146.053416 C155.003944,146.053416 160.46264,143.954348 163.401149,141.224534 L160.602391,136.676087 C158.222888,138.425776 155.143696,139.545652 152.135311,139.545652 C147.656739,139.545652 145.20736,136.186025 145.067609,130.868012 L164.451149,130.868012 C164.590901,130.028571 164.590901,129.259006 164.590901,128.418634 L164.590901,128.418634 Z M154.37413,124.569876 C154.37413,125.059938 154.304255,125.55 154.304255,126.040062 L145.20736,126.040062 C145.347112,123.030745 146.256429,118.201863 150.175994,118.201863 C153.814193,118.201863 154.37413,122.050621 154.37413,124.569876 L154.37413,124.569876 Z M191.105497,120.091304 L191.105497,114.213354 C191.105497,112.883851 190.405807,112.184161 188.725994,112.184161 C185.50705,112.184161 182.357981,113.863975 180.328789,116.453106 L180.328789,114.703416 C180.328789,113.093478 179.489348,112.604348 177.669783,112.604348 C175.150528,112.604348 170.95146,113.093478 164.37382,113.093478 L165.353012,117.992236 L169.552081,117.992236 L169.552081,140.315217 L165.91295,140.315217 L165.91295,145.143168 L184.037795,145.143168 L184.037795,140.315217 L182.708292,140.315217 C181.098354,140.315217 180.328789,139.964907 180.328789,138.286025 L180.328789,122.470807 C183.337174,120.511491 185.997112,120.021429 188.725994,120.021429 C189.425683,120.021429 190.545559,120.021429 191.105497,120.091304 L191.105497,120.091304 Z M218.417609,136.396584 C218.417609,131.288199 215.617919,128.559317 211.139348,126.599068 L206.170714,124.430124 C203.302081,123.170497 202.252081,122.400932 202.252081,120.790994 C202.252081,119.181988 203.862019,117.92236 206.100839,117.92236 C208.830652,117.92236 210.859845,119.321739 211.279099,122.26118 L211.489658,123.800311 C211.699286,125.129814 212.259224,125.689752 213.869161,125.689752 L216.528168,125.689752 L216.528168,113.093478 L212.67941,113.093478 L212.329099,114.913043 C210.57941,113.234161 207.920404,112.184161 204.282205,112.184161 C197.984068,112.184161 192.315745,116.032919 192.315745,122.26118 C192.315745,127.649068 195.604565,130.518634 200.083137,132.267391 L204.491832,134.017081 C207.571025,135.206832 208.480342,135.976398 208.480342,137.586335 C208.480342,139.05559 206.871335,140.245342 204.491832,140.245342 C200.992453,140.245342 198.544006,138.495652 198.053944,135.41646 L197.843385,134.156832 C197.563882,132.547826 197.143696,132.337267 195.394938,132.337267 L192.735932,132.337267 L192.735932,145.143168 L196.584689,145.143168 L197.07382,143.113975 C199.593075,145.143168 202.672267,146.053416 206.100839,146.053416 C213.098665,146.053416 218.417609,142.064907 218.417609,136.396584 L218.417609,136.396584 Z M238.052702,145.143168 L238.052702,140.315217 L236.723199,140.315217 C235.114193,140.315217 234.343696,139.964907 234.343696,138.286025 L234.343696,114.703416 C234.343696,113.093478 233.57413,112.604348 231.684689,112.604348 C229.165435,112.604348 224.967298,113.093478 218.389658,113.093478 L219.368851,117.992236 L223.567919,117.992236 L223.567919,140.315217 L219.928789,140.315217 L219.928789,145.143168 L238.052702,145.143168 Z M260.227547,144.584161 L260.227547,138.565528 C259.178478,138.915839 257.428789,139.335093 255.959534,139.335093 C254.419472,139.335093 253.089969,138.776087 252.320404,137.236025 C251.830342,136.326708 251.550839,134.786646 251.550839,132.47795 L251.550839,117.992236 L259.038727,117.992236 L258.058602,113.093478 L251.411087,113.093478 L251.411087,104.766149 L243.783447,105.955901 C241.683447,106.306211 240.77413,107.495963 240.77413,109.664907 L240.77413,113.093478 L236.785621,113.093478 L236.785621,117.992236 L240.77413,117.992236 L240.77413,132.267391 C240.77413,138.146273 241.82413,141.224534 243.853323,143.254658 C245.672888,145.073292 248.471646,145.98354 251.971025,145.98354 C255.399596,145.98354 258.548665,145.143168 260.227547,144.584161 L260.227547,144.584161 Z M299.750217,117.992236 L298.771025,113.093478 L281.136242,113.093478 L281.136242,117.992236 L284.564814,117.992236 L284.564814,136.606211 C282.955807,138.00559 281.206118,138.915839 279.246801,138.915839 C277.007981,138.915839 275.608602,137.726087 275.608602,134.997205 L275.608602,114.703416 C275.608602,113.093478 274.838106,112.604348 272.948665,112.604348 C270.42941,112.604348 266.231273,113.093478 259.653634,113.093478 L260.632826,117.992236 L264.831894,117.992236 L264.831894,135.486335 C264.831894,138.985714 265.811087,141.64472 267.560776,143.324534 C269.380342,145.073292 272.109224,146.053416 274.978789,146.053416 C277.707671,146.053416 280.996491,145.213975 284.564814,142.484161 L284.564814,146.753106 C284.564814,148.852174 284.285311,150.741615 283.375994,152.001242 C282.256118,153.470497 280.226925,154.31087 277.35736,154.31087 C274.418851,154.31087 271.47941,153.750932 268.539969,152.700932 L268.539969,159.48913 C270.77972,160.18882 274.76823,160.818634 278.267609,160.818634 C287.294627,160.818634 292.403012,156.9 294.362329,151.651863 C295.341522,148.992857 295.341522,145.493478 295.341522,142.414286 L295.341522,120.651242 C295.341522,118.691925 296.321646,117.992236 297.930652,117.992236 L299.750217,117.992236 Z M96.8049689,104.934969 C96.8049689,101.506398 94.0062112,99.4762733 90.7872671,99.4762733 C87.568323,99.4762733 84.7686335,101.506398 84.7686335,104.934969 C84.7686335,108.36354 87.568323,110.393665 90.7872671,110.393665 C94.0062112,110.393665 96.8049689,108.36354 96.8049689,104.934969 M234.484472,104.934969 C234.484472,101.506398 231.684783,99.4762733 228.465839,99.4762733 C225.246894,99.4762733 222.448137,101.506398 222.448137,104.934969 C222.448137,108.36354 225.246894,110.393665 228.465839,110.393665 C231.684783,110.393665 234.484472,108.36354 234.484472,104.934969"/>
    <path fill="#B9024F" d="M37.2135093,34.08 C37.2135093,30.5815528 35.8141304,27.8517391 33.6442547,25.7526708 C32.2448758,24.4231677 29.9361801,23.1635404 27.9060559,22.1834161 L22.5880435,19.7349689 C18.2492236,17.7048447 15.8706522,16.2355901 15.8706522,13.6464596 C15.8706522,11.3368323 18.1793478,9.72782609 21.048913,9.72782609 C23.0781056,9.72782609 24.8976708,10.5672671 26.0166149,11.6871429 C26.9967391,12.6672671 27.6964286,14.066646 28.1864907,15.8154037 L28.7464286,17.9852795 C29.0259317,18.964472 29.446118,19.6641615 30.7756211,19.6641615 L34.4846273,19.6641615 L34.4846273,3.22006211 L28.606677,3.22006211 L28.3262422,5.38900621 C26.3669255,3.56944099 23.1479814,2.38062112 19.0895963,2.38062112 C11.0417702,2.38062112 4.39425466,7.34832298 4.39425466,15.6756522 C4.39425466,21.1343478 7.61319876,25.5430435 14.3305901,28.3418012 L19.5088509,30.5107453 C23.5681677,32.190559 25.3169255,33.5200621 25.3169255,36.0393168 C25.3169255,36.7390062 25.0374224,37.6492547 24.4076087,38.2790683 C23.4982919,39.1883851 21.888354,39.8880745 19.8591615,39.8880745 C15.4504658,39.8880745 12.6517081,37.5085714 11.8812112,33.1706832 L11.6017081,31.6306211 C11.322205,29.9517391 10.6923913,29.6014286 8.94270186,29.6014286 L5.30357143,29.6014286 L5.30357143,46.3259627 L11.1815217,46.3259627 L11.6017081,43.8765839 C13.5610248,45.6961491 17.2700311,47.1654037 21.1886646,47.1654037 C31.8954969,47.1654037 37.2135093,41.5678882 37.2135093,34.08 L37.2135093,34.08 Z M76.3998447,46.3259627 L76.3998447,41.4980124 L75.0703416,41.4980124 C73.4613354,41.4980124 72.6917702,41.2175776 72.6917702,39.4678882 L72.6917702,24.0029814 C72.6917702,20.4346584 71.711646,17.7756522 69.9619565,16.0958385 C68.1423913,14.2762733 65.4135093,13.3669565 62.5448758,13.3669565 C59.8150621,13.3669565 56.5262422,14.2063975 52.9579193,16.9352795 L52.9579193,4.82906832 C52.9579193,3.22006211 52.1874224,2.73 50.298913,2.73 C47.7796584,2.73 43.5805901,3.22006211 37.0029503,3.22006211 L37.9821429,8.1178882 L42.1812112,8.1178882 L42.1812112,41.4980124 L38.5420807,41.4980124 L38.5420807,46.3259627 L56.5262422,46.3259627 L56.5262422,41.4980124 L55.3364907,41.4980124 C53.7274845,41.4980124 52.9579193,41.1477019 52.9579193,39.4678882 L52.9579193,22.8132298 C54.5669255,21.4138509 56.3166149,20.5045342 58.2759317,20.5045342 C60.5147516,20.5045342 61.9150621,21.6942857 61.9150621,24.4231677 L61.9150621,41.4980124 L58.9057453,41.4980124 L58.9057453,46.3259627 L76.3998447,46.3259627 Z M107.001708,29.6014286 C107.001708,20.5744099 101.963199,13.3669565 92.3762422,13.3669565 C82.3690994,13.3669565 76.2107143,20.7141615 76.2107143,30.4408696 C76.2107143,40.5178882 81.8790373,47.2362112 92.235559,47.2362112 C97.4147516,47.2362112 102.872516,45.1362112 105.811957,42.4073292 L103.012267,37.858882 C100.633696,39.6085714 97.5545031,40.7275155 94.5451863,40.7275155 C90.0666149,40.7275155 87.617236,37.3688199 87.4774845,32.0508075 L106.861025,32.0508075 C107.001708,31.2113665 107.001708,30.4408696 107.001708,29.6014286 L107.001708,29.6014286 Z M96.7849379,25.7526708 C96.7849379,26.2427329 96.7141304,26.732795 96.7141304,27.2219255 L87.617236,27.2219255 C87.7569876,24.2135404 88.667236,19.3846584 92.5858696,19.3846584 C96.225,19.3846584 96.7849379,23.2334161 96.7849379,25.7526708 L96.7849379,25.7526708 Z M121.024379,11.0563975 C121.024379,7.83745342 122.983696,6.85826087 125.712578,6.85826087 C127.462267,6.85826087 129.281832,7.20763975 130.890839,7.76757764 L130.890839,1.53931677 C129.351708,0.910434783 125.712578,0.000186335404 122.284006,0.000186335404 C114.936801,0.000186335404 110.317547,3.56944099 110.317547,10.7070186 C110.317547,10.7070186 110.355745,12.5834161 111.227795,14.2762733 L107.168478,14.2762733 L107.168478,19.1750311 L111.99736,19.1750311 L111.99736,41.4980124 L108.35823,41.4980124 L108.35823,46.3259627 L126.483075,46.3259627 L126.483075,41.4980124 L125.153571,41.4980124 C123.543634,41.4980124 122.774068,40.9380745 122.774068,39.4678882 L122.774068,19.1750311 L130.121273,19.1750311 L129.142081,14.2762733 L122.144255,14.2762733 C121.034627,12.8862112 121.024379,11.0563975 121.024379,11.0563975 L121.024379,11.0563975 Z M170.456366,6.08869565 C170.456366,2.65919255 167.657609,0.63 164.438665,0.63 C161.21972,0.63 158.420031,2.65919255 158.420031,6.08869565 C158.420031,9.51726708 161.21972,11.5464596 164.438665,11.5464596 C167.657609,11.5464596 170.456366,9.51726708 170.456366,6.08869565 L170.456366,6.08869565 Z M145.474379,11.0563975 C145.474379,8.04801242 147.154193,6.85826087 149.673447,6.85826087 C151.632764,6.85826087 153.731832,7.34832298 155.34177,7.83745342 L156.251087,1.61012422 C153.94146,0.769751553 149.95295,0.000186335404 146.734006,0.000186335404 C138.896739,0.000186335404 134.767547,3.98869565 134.767547,10.4265839 C134.767547,10.4265839 134.733075,11.8604348 135.538043,14.2762733 L130.738043,14.2762733 L131.720031,19.1750311 L135.957298,19.1750311 L135.957298,41.4980124 L132.319099,41.4980124 L132.319099,46.3259627 L150.443012,46.3259627 L150.443012,41.4980124 L149.113509,41.4980124 C147.503571,41.4980124 146.734006,40.9380745 146.734006,39.4678882 L146.734006,19.1750311 L159.539907,19.1750311 L159.539907,41.4980124 L155.900776,41.4980124 L155.900776,46.3259627 L174.025621,46.3259627 L174.025621,41.4980124 L172.696118,41.4980124 C171.08618,41.4980124 170.316615,41.1477019 170.316615,39.4678882 L170.316615,15.8862112 C170.316615,14.2762733 169.54705,13.7862112 167.657609,13.7862112 C165.138354,13.7862112 159.609783,14.2762733 153.102019,14.2762733 L146.174068,14.2762733 C145.523758,12.958882 145.474379,11.0563975 145.474379,11.0563975 L145.474379,11.0563975 Z M205.332764,29.6014286 C205.332764,20.5744099 200.294255,13.3669565 190.707298,13.3669565 C180.700155,13.3669565 174.542702,20.7141615 174.542702,30.4408696 C174.542702,40.5178882 180.210093,47.2362112 190.567547,47.2362112 C195.745807,47.2362112 201.203571,45.1362112 204.143012,42.4073292 L201.343323,37.858882 C198.964752,39.6085714 195.885559,40.7275155 192.876242,40.7275155 C188.397671,40.7275155 185.948292,37.3688199 185.80854,32.0508075 L205.192081,32.0508075 C205.332764,31.2113665 205.332764,30.4408696 205.332764,29.6014286 L205.332764,29.6014286 Z M195.115994,25.7526708 C195.115994,26.2427329 195.046118,26.732795 195.046118,27.2219255 L185.948292,27.2219255 C186.088975,24.2135404 186.998292,19.3846584 190.916925,19.3846584 C194.556056,19.3846584 195.115994,23.2334161 195.115994,25.7526708 L195.115994,25.7526708 Z M224.680901,46.3259627 L224.680901,41.4980124 L223.351398,41.4980124 C221.74146,41.4980124 220.971894,41.1477019 220.971894,39.4678882 L220.971894,4.82906832 C220.971894,3.22006211 220.202329,2.73 218.312888,2.73 C215.793634,2.73 211.595497,3.22006211 205.016925,3.22006211 L205.99705,8.1178882 L210.195186,8.1178882 L210.195186,41.4980124 L206.556988,41.4980124 L206.556988,46.3259627 L224.680901,46.3259627 Z M260.327795,46.3259627 L260.327795,41.4980124 L258.157919,41.4980124 C256.479037,41.4980124 255.988975,40.587764 255.988975,39.3281366 L255.988975,4.82906832 C255.988975,3.22006211 255.21941,2.73 253.329969,2.73 C250.810714,2.73 246.611646,3.22006211 240.034006,3.22006211 L241.013199,8.1178882 L245.212267,8.1178882 L245.212267,14.3461491 C243.392702,13.7163354 241.433385,13.3669565 239.61382,13.3669565 C232.056056,13.3669565 224.848602,18.964472 224.848602,30.0216149 C224.848602,40.5178882 230.237422,47.2362112 239.124689,47.2362112 C242.762888,47.2362112 246.051708,45.6961491 247.731522,43.9464596 C248.640839,45.6262733 250.810714,46.3259627 253.11941,46.3259627 L260.327795,46.3259627 Z M245.212267,39.4678882 C244.512578,40.0278261 243.322826,40.798323 241.573137,40.798323 C238.774379,40.798323 236.045497,38.4188199 236.045497,30.1613665 C236.045497,21.4837267 238.91413,19.1750311 241.71382,19.1750311 C243.183075,19.1750311 244.652329,19.6641615 245.212267,20.014472 L245.212267,39.4678882 Z M44.9254658,96.3694099 L44.9254658,90.701087 L42.9661491,90.701087 C40.6565217,90.701087 40.0965839,89.7218944 40.0965839,87.8324534 L40.0965839,58.9318323 L44.0161491,58.9318323 L44.0161491,53.2635093 L23.792236,53.2635093 L23.792236,58.9318323 L25.7515528,58.9318323 C28.0611801,58.9318323 28.621118,59.9110248 28.621118,61.8004658 L28.621118,71.1079193 L16.3043478,71.1079193 L16.3043478,58.9318323 L20.2229814,58.9318323 L20.2229814,53.2635093 L7.10542736e-15,53.2635093 L7.10542736e-15,58.9318323 L1.95931677,58.9318323 C4.26801242,58.9318323 4.82795031,59.9110248 4.82795031,61.8004658 L4.82795031,90.701087 L0.90931677,90.701087 L0.90931677,96.3694099 L21.1332298,96.3694099 L21.1332298,90.701087 L19.173913,90.701087 C16.8642857,90.701087 16.3043478,89.7218944 16.3043478,87.8324534 L16.3043478,77.6156832 L28.621118,77.6156832 L28.621118,90.701087 L24.7015528,90.701087 L24.7015528,96.3694099 L44.9254658,96.3694099 Z M78.4434783,96.3694099 L78.4434783,91.540528 L75.9950311,91.540528 C74.6645963,91.540528 73.9649068,90.9815217 73.9649068,89.5812112 L73.9649068,75.3759317 C73.9649068,66.4187888 68.2267081,63.4104037 60.0400621,63.4104037 C56.4708075,63.4104037 52.0621118,64.1799689 48.6335404,65.4395963 L48.6335404,71.3874224 C52.831677,69.7076087 56.1204969,69.2184783 58.5698758,69.2184783 C61.5093168,69.2184783 63.1891304,70.4781056 63.1891304,73.3467391 L63.1891304,75.3060559 C52.9015528,75.5156832 45.6242236,79.6448758 45.6242236,86.9920807 C45.6242236,94.2004658 50.5229814,97.2787267 55.9807453,97.2787267 C59.8993789,97.2787267 63.6782609,95.3892857 65.1484472,93.8501553 C65.9878882,95.6697205 68.0170807,96.3694099 70.3965839,96.3694099 L78.4434783,96.3694099 Z M63.1891304,88.811646 C62.6291925,89.3017081 61.0891304,90.0013975 59.6897516,90.0013975 C57.3102484,90.0013975 55.8409938,88.4622671 55.8409938,86.1526398 C55.8409938,83.0734472 58.5698758,80.5541925 63.1891304,80.2746894 L63.1891304,88.811646 Z M97.6593168,96.3694099 L97.6593168,91.540528 L96.3298137,91.540528 C94.7198758,91.540528 93.9503106,91.1911491 93.9503106,89.5113354 L93.9503106,54.8119565 C93.9503106,53.2029503 93.1807453,52.7128882 91.2913043,52.7128882 C88.7720497,52.7128882 84.5729814,53.2029503 77.9953416,53.2029503 L78.9754658,58.1007764 L83.1736025,58.1007764 L83.1736025,91.540528 L79.534472,91.540528 L79.534472,96.3694099 L97.6593168,96.3694099 Z M117.259938,96.3694099 L117.259938,91.540528 L115.930435,91.540528 C114.320497,91.540528 113.550932,91.1911491 113.550932,89.5113354 L113.550932,54.8119565 C113.550932,53.2029503 112.781366,52.7128882 110.891925,52.7128882 C108.372671,52.7128882 104.173602,53.2029503 97.5959627,53.2029503 L98.576087,58.1007764 L102.774224,58.1007764 L102.774224,91.540528 L99.1350932,91.540528 L99.1350932,96.3694099 L117.259938,96.3694099 Z M150.268323,96.3694099 L150.268323,91.540528 L147.819876,91.540528 C146.489441,91.540528 145.789752,90.9815217 145.789752,89.5812112 L145.789752,75.3759317 C145.789752,66.4187888 140.051553,63.4104037 131.864907,63.4104037 C128.295652,63.4104037 123.886957,64.1799689 120.458385,65.4395963 L120.458385,71.3874224 C124.656522,69.7076087 127.945342,69.2184783 130.39472,69.2184783 C133.334161,69.2184783 135.013043,70.4781056 135.013043,73.3467391 L135.013043,75.3060559 C124.726398,75.5156832 117.449068,79.6448758 117.449068,86.9920807 C117.449068,94.2004658 122.347826,97.2787267 127.80559,97.2787267 C131.724224,97.2787267 135.503106,95.3892857 136.973292,93.8501553 C137.812733,95.6697205 139.841925,96.3694099 142.221429,96.3694099 L150.268323,96.3694099 Z M135.013043,88.811646 C134.454037,89.3017081 132.913975,90.0013975 131.514596,90.0013975 C129.135093,90.0013975 127.665839,88.4622671 127.665839,86.1526398 C127.665839,83.0734472 130.39472,80.5541925 135.013043,80.2746894 L135.013043,88.811646 Z M208.524224,96.3694099 L208.524224,91.540528 L207.19472,91.540528 C205.585714,91.540528 204.815217,91.2610248 204.815217,89.5113354 L204.815217,74.0464286 C204.815217,70.4781056 203.836025,67.8181677 202.086335,66.1392857 C200.26677,64.3197205 197.537888,63.4104037 194.668323,63.4104037 C190.330435,63.4104037 186.551553,65.2290373 183.892547,67.6085404 C183.542236,67.0486025 183.12205,66.5585404 182.632919,66.1392857 C180.813354,64.3197205 178.084472,63.4104037 175.214907,63.4104037 C172.765528,63.4104037 169.267081,64.3197205 165.908385,66.9787267 L165.908385,65.9287267 C165.908385,64.3197205 165.137888,63.8296584 163.248447,63.8296584 C160.730124,63.8296584 156.531056,64.3197205 149.953416,64.3197205 L150.932609,69.2184783 L155.131677,69.2184783 L155.131677,91.540528 L151.492547,91.540528 L151.492547,96.3694099 L169.267081,96.3694099 L169.267081,91.540528 L168.286957,91.540528 C166.67795,91.540528 165.908385,91.1911491 165.908385,89.5113354 L165.908385,72.856677 C167.447516,71.4572981 169.197205,70.5479814 171.01677,70.5479814 C173.25559,70.5479814 174.585093,71.8076087 174.585093,74.4666149 L174.585093,91.540528 L171.646584,91.540528 L171.646584,96.3694099 L188.720497,96.3694099 L188.720497,91.540528 L187.741304,91.540528 C186.131366,91.540528 185.361801,91.2610248 185.361801,89.5113354 L185.361801,74.0464286 C185.361801,73.6262422 185.291925,73.2069876 185.291925,72.7868012 C187.041615,71.177795 188.790373,70.5479814 190.470186,70.5479814 C192.709006,70.5479814 194.039441,71.8076087 194.039441,74.4666149 L194.039441,91.540528 L191.1,91.540528 L191.1,96.3694099 L208.524224,96.3694099 Z"/>
  </g>
</svg>
