<svg xmlns="http://www.w3.org/2000/svg" viewBox="0 0 527 142"><defs><style>.a{fill:#fff;}</style></defs><title>Artboard 1</title><path d="M18.6729,35.7207A1.6176,1.6176,0,0,1,20.2871,37.12l2.3667,25.4985c.1079,1.1836.4307,2.0444.8608,2.0444s.8608-.8608.9683-2.0444L27.0649,37.12c.2153-.8608.5381-1.3989,1.291-1.3989H39.33a1.4755,1.4755,0,0,1,1.2915,1.1836l2.7974,25.7139c.1074,1.1836.43,2.0444.86,2.0444s.8608-.8608.9683-2.0444l2.1519-25.6064c.1079-.7529.5381-1.291,1.1836-1.291h17.43c1.0757,0,1.3984.6455,1.291,1.5063L57.2979,114.7988c-.1074,1.0762-.7534,1.6143-1.3989,1.6143H40.1909a1.3753,1.3753,0,0,1-1.291-1.1836L34.8115,89.1934c-.1074-.9687-.43-1.7217-.8608-1.7217s-.7529.86-.8608,1.8291l-3.7656,25.8213c-.2148.7529-.5376,1.291-1.1831,1.291H12.2178a1.6062,1.6062,0,0,1-1.5063-1.3984L.3828,37.12a1.11,1.11,0,0,1,1.1836-1.3989Z"/><path d="M69.4565,37.12a1.5035,1.5035,0,0,1,1.3984-1.3989h38.1943a1.1062,1.1062,0,0,1,1.0762,1.1836V56.2705a1.1058,1.1058,0,0,1-1.1836,1.0757H90.9746a.7355.7355,0,0,0-.7534.7534v6.0249a.8086.8086,0,0,0,.7534.7529h8.5a.7354.7354,0,0,1,.7529.7534V85.2119a.9487.9487,0,0,1-.8608.9688H90.6519a.767.767,0,0,0-.7534.86v6.3477a.7191.7191,0,0,0,.6455.7529h18.6133a1.1071,1.1071,0,0,1,1.1836,1.0762v20.0117a1.1942,1.1942,0,0,1-1.1836,1.1836H70.64a1.3228,1.3228,0,0,1-1.1836-1.3984Z"/><path d="M114.6455,37.0117a1.16,1.16,0,0,1,1.1836-1.291h20.0117c13.9863,0,21.9482,10.4365,21.9482,19.3662,0,6.4556-.1079,16.3535-10.9741,19.6885v.2158c6.7778,2.4746,11.2969,9.6826,11.2969,18.0752,0,5.4863-.1079,23.3467-22.3789,23.3467H115.7212a1.0459,1.0459,0,0,1-1.0757-1.1836ZM133.9038,66.061a.7358.7358,0,0,0,.7534.7534,2.9841,2.9841,0,0,0,3.12-3.12V54.4414a2.9665,2.9665,0,0,0-3.12-2.7974c-.4307,0-.7534.2153-.7534.6455Zm0,33.46a.68.68,0,0,0,.7534.7529,3.1456,3.1456,0,0,0,3.2275-3.12V85.8574a3.0677,3.0677,0,0,0-3.3354-2.9043c-.43,0-.6455.3223-.6455.86Z"/><path d="M207.064,35.7207a1.5036,1.5036,0,0,1,1.3989,1.3989l14.74,76.9263c.2148,1.1836-.3228,2.3672-1.5063,2.3672h-17.43a1.3933,1.3933,0,0,1-1.3984-1.0762l-2.1519-16.1377a1.048,1.048,0,0,0-1.0757-.8613h-5.81a1.1508,1.1508,0,0,0-.9683,1.0762l-2.0444,15.8154a1.4674,1.4674,0,0,1-1.3984,1.1836H171.667c-.9683,0-1.5063-.7529-1.291-1.8291l14.417-77.5723c.1074-.5376.6455-1.291,1.291-1.291Zm-9.4678,40.5615c-.2153-1.5068-.43-2.4746-.7529-2.4746s-.5381.7529-.7534,2.4746l-1.3984,10.2207c-.1079.5381.1074,1.0762.6455,1.0762,3.4429,0,3.7656,0,3.6577-.9687Z"/><path d="M225.4624,37.55c0-1.0757.5381-1.8291,1.5063-1.8291h25.0684c4.9492,0,20.8721,3.5508,20.8721,23.8848,0,10.0059-8.93,19.9043-19.2583,19.9043-5.272,0-5.81,0-5.81,1.291v34.1064c0,.86-.6455,1.5059-1.8286,1.5059H227.1836a1.8227,1.8227,0,0,1-1.7212-1.9365Zm22.3784,28.0811a1.16,1.16,0,0,0,1.0762,1.1836c1.6138,0,2.2593-1.3989,2.2593-3.5508V58.8525c0-1.7212-.8608-2.9048-2.2593-2.9048a1.5992,1.5992,0,0,0-.7534.1074c-.2148.1079-.3228.5381-.3228.8608Z"/><path d="M275.5991,37.55c0-1.0757.5381-1.8291,1.5063-1.8291h25.0684c4.9492,0,20.8721,3.5508,20.8721,23.8848,0,10.0059-8.93,19.9043-19.2588,19.9043-5.2715,0-5.81,0-5.81,1.291v34.1064c0,.86-.6455,1.5059-1.8286,1.5059H277.32a1.8227,1.8227,0,0,1-1.7212-1.9365Zm22.3784,28.0811a1.16,1.16,0,0,0,1.0762,1.1836c1.6138,0,2.26-1.3989,2.26-3.5508V58.8525c0-1.7212-.8613-2.9048-2.26-2.9048a1.5992,1.5992,0,0,0-.7534.1074c-.2148.1079-.3228.5381-.3228.8608Z"/><path d="M354.0322,61.7573c-.6455,0-1.0762-.3228-1.291-1.1831q-.9683-3.8738-3.2285-3.8735c-1.0752,0-1.6133.8608-1.6133,1.9365,0,3.4429,5.0566,7.3164,11.5117,11.7275,6.9932,4.7339,12.2656,12.48,12.2656,20.4419,0,14.417-8.6074,25.93-22.7012,25.93-16.3545,0-23.8857-11.835-23.8857-29.05a1.1441,1.1441,0,0,1,1.291-1.0762l14.8477-.7529c.7529,0,1.1836.4307,1.291,1.3984.4307,4.3037,2.26,8.9307,4.8418,8.9307,1.5059,0,2.4746-.9687,2.4746-3.4434,0-2.582-6.0254-7.3154-13.2334-13.126s-10.7588-13.8789-10.7588-21.1948c0-10.9741,8.1768-22.9165,22.5938-22.9165s23.3467,11.2969,23.3467,24.1a1.2708,1.2708,0,0,1-1.291,1.3989Z"/><path class="a" d="M447.5854,88.1576c2.5407.4044,4.6572.6573,6.7343,1.0968a4.52,4.52,0,0,0,4.5166-1.5066c9.2708-9.364,18.6753-18.5966,27.8871-28.0177,9.8849-10.1094,14.0817-22.5511,14.2747-36.485.0474-3.4252-.8023-4.2738-4.1615-4.228a69.762,69.762,0,0,0-7.7291.6219c-9.1317,1.1481-17.8162,4.01-24.5858,10.229C453.253,40.22,442.567,51.2092,431.7457,62.04c-.77.7706-.9214,2.4523-.8671,3.6887a64.0458,64.0458,0,0,0,.8684,6.417c-5.1868,2.6094-11.02,2.3632-16.11,5.6153l4.5342,5.5046L416.56,87.6247c1.9882,3.572,13.4811,14.7562,16.1709,15.7405l4.03-3.4018c2.4254.883,3.0791,4.49,6.6488,3.2885Zm-57.5606,41.746c5.0577,1.6644,9.052-.7761,13.2166-2.98l.9821,6.2188,8.5369-8.1988,1.3627,3.5505c5.5986-2.1711,13.4825-15.2985,13.1529-21.488L412.916,92.661c-6.5277.05-18.9109,7.56-21.3774,13.1123l3.7806,1.8294c-1.62,1.41-3.0092,2.5347-4.2978,3.765-1.3284,1.2682-2.8073,2.4879-3.0214,4.7261l5.3364.7295C390.664,120.9492,388.7291,124.9437,390.0248,129.9036Z"/><path d="M447.5854,88.1576,443.41,103.252c-3.57,1.2014-4.2233-2.4055-6.6488-3.2885l-4.03,3.4018c-2.69-.9844-14.1827-12.1685-16.1709-15.7405l3.6109-4.3592-4.5342-5.5046c5.09-3.2521,10.9234-3.0059,16.11-5.6153a64.0458,64.0458,0,0,1-.8684-6.417c-.0543-1.2364.0972-2.9181.8671-3.6887C442.567,51.2092,453.253,40.22,464.5217,29.868c6.77-6.2189,15.454-9.0809,24.5858-10.229a69.762,69.762,0,0,1,7.7291-.6219c3.3592-.0457,4.209.8028,4.1615,4.228-.193,13.9339-4.39,26.3756-14.2747,36.485-9.2119,9.4211-18.6164,18.6537-27.8871,28.0177a4.52,4.52,0,0,1-4.5166,1.5066C452.2426,88.8149,450.126,88.562,447.5854,88.1576Zm.666-16.7828,19.8-20.7747c7.1442,4.15,11.66,4.4232,15.3173.6516a14.925,14.925,0,0,0,3.3071-6.0921c1.056-3.6379-1.0674-6.6547-3.0435-9.6458l12.3186-12.4616a41.4511,41.4511,0,0,0-5.5417.0329c-10.5986,1.6667-20.1153,5.64-27.8353,13.3436q-10.1645,10.1435-20.3491,20.2669c-2.2039,2.1964-4.3948,4.4058-6.617,6.6347Zm8.3772,12.9008a7.7466,7.7466,0,0,0,.9515-.6765c8.5026-8.5076,16.9491-17.072,25.5088-25.5217,8.1937-8.0884,12.47-17.986,13.8934-29.2519a31.7621,31.7621,0,0,0,.0216-3.9066L485.881,36.3255c3.3762,5.979,3.2721,10.9682-1.1313,15.2972a15.401,15.401,0,0,1-6.36,3.42c-3.55,1.0347-6.795-.5158-9.2771-2.1041L449.2,72.6368Zm-12.5231,1.829L434.3242,75.82,423.049,78.9324l17.95,18.7581ZM435.2285,66.42c.4165,3.1253-.21,6.4289,2.0877,8.9647,2.7053,2.9862,5.5063,5.8856,7.8334,8.3624l9.1782,1.5512C450.0566,76.17,444.2535,69.8065,435.2285,66.42ZM421.5261,87.3812,432.5971,98.61l2.2489-2.2112L423.9354,85.041Z"/><path d="M390.0248,129.9036c-1.2957-4.96.6392-8.9544,3.3116-13.08L388,116.0939c.2141-2.2382,1.693-3.4579,3.0214-4.7261,1.2887-1.23,2.6782-2.355,4.2978-3.765l-3.7806-1.8294c2.4665-5.552,14.85-13.0619,21.3774-13.1123l14.36,14.3448c.33,6.1895-7.5543,19.3169-13.1529,21.488l-1.3627-3.5505-8.5369,8.1988-.9821-6.2188C399.0769,129.1275,395.0825,131.5681,390.0248,129.9036Zm7.559-15.2442.5374.7768c-3.6053,3.5055-6.9667,7.1153-6.2427,12.696,5.8136.8758,9.2469-2.9467,13.4117-6.5345l.7054,6.4275.8375.24,6.7476-9.1657,2.0932,6.0186a36.7308,36.7308,0,0,0,9.636-16.947L411.628,94.7331a37.3924,37.3924,0,0,0-16.654,9.5917l5.9689,2.2047-9.1531,6.8534.3708.7554Z"/><path class="a" d="M448.2514,71.3748,435.6076,63.33c2.2222-2.2289,4.4131-4.4383,6.617-6.6347q10.1713-10.1367,20.3491-20.2669c7.72-7.704,17.2367-11.6769,27.8353-13.3436a41.4511,41.4511,0,0,1,5.5417-.0329L483.632,35.5139c1.9761,2.9911,4.0994,6.0079,3.0435,9.6458a14.925,14.925,0,0,1-3.3071,6.0921c-3.6578,3.7716-8.1731,3.498-15.3173-.6516ZM476.61,49.937a6.3725,6.3725,0,1,0-6.4787-6.3117A6.3376,6.3376,0,0,0,476.61,49.937Zm-21.2927,3.8564-.3405-.9127-6.2115-.81L444.1385,57l4.8574,2.39Z"/><path class="a" d="M456.6286,84.2756,449.2,72.6368l19.9125-19.6985c2.4822,1.5883,5.7272,3.1388,9.2771,2.1041a15.401,15.401,0,0,0,6.36-3.42c4.4034-4.329,4.5075-9.3182,1.1313-15.2972l11.1229-11.4066a31.7621,31.7621,0,0,1-.0216,3.9066c-1.4235,11.2659-5.7,21.1636-13.8934,29.2519-8.56,8.45-17.0061,17.0141-25.5088,25.5217A7.7466,7.7466,0,0,1,456.6286,84.2756Zm11.3193-13.2191-.8565-6.0351-.71-.2646-5.7242,6.4892,2.6175,4.5588c1.0479-.9907,1.7948-1.6568,2.4943-2.3693S467.1218,71.9632,467.9479,71.0565Z"/><path class="a" d="M444.1055,86.1046,440.9991,97.69l-17.95-18.7581L434.3242,75.82Z"/><path class="a" d="M435.2285,66.42c9.025,3.386,14.8281,9.75,19.0993,18.8783L445.15,83.7476c-2.3271-2.4768-5.1281-5.3762-7.8334-8.3624C435.0189,72.8494,435.6449,69.5458,435.2285,66.42Z"/><path class="a" d="M421.5261,87.3812l2.4093-2.34L434.846,96.3993,432.5971,98.61Z"/><path class="a" d="M397.5838,114.6595l-5.4231-.5211-.3708-.7554,9.1531-6.8534-5.9689-2.2047a37.3924,37.3924,0,0,1,16.654-9.5917L425.31,108.1707a36.7308,36.7308,0,0,1-9.636,16.947l-2.0932-6.0186-6.7476,9.1657-.8375-.24-.7054-6.4275c-4.1647,3.5879-7.5981,7.41-13.4117,6.5345-.724-5.5807,2.6374-9.1906,6.2427-12.696Z"/><path d="M476.61,49.937a6.3731,6.3731,0,1,1,6.2148-6.5936A6.3121,6.3121,0,0,1,476.61,49.937Zm-.2486-2.134a4.2368,4.2368,0,1,0-4.1321-4.4353A4.2561,4.2561,0,0,0,476.3613,47.803Z"/><path d="M455.3173,53.7934,448.9959,59.39,444.1385,57l4.6267-4.9285,6.2115.81Z"/><path d="M467.9479,71.0565c-.8261.9067-1.4786,1.666-2.1785,2.3789s-1.4464,1.3786-2.4943,2.3693l-2.6175-4.5588,5.7242-6.4892.71.2646Z"/><path class="a" d="M476.3613,47.803a4.2362,4.2362,0,1,1,4.3688-4.2067A4.258,4.258,0,0,1,476.3613,47.803Z"/></svg>